<?xml version="1.0" encoding="UTF-8"?>
<svg xmlns="http://www.w3.org/2000/svg" xmlns:xlink="http://www.w3.org/1999/xlink" version="1.1" viewBox="0 0 509 499">
  <!-- Generator: Adobe Illustrator 29.6.1, SVG Export Plug-In . SVG Version: 2.1.1 Build 9)  -->
  <defs>
    <style>
      .st0 {
        mix-blend-mode: multiply;
        opacity: .5;
      }

      .st1 {
        fill: url(#Blanco_Negro_21);
      }

      .st1, .st2 {
        mix-blend-mode: overlay;
        opacity: .71;
      }

      .st3 {
        fill: #884393;
      }

      .st4 {
        isolation: isolate;
      }

      .st2 {
        fill: url(#Blanco_Negro_2);
      }

      .st5 {
        fill: #54c2e9;
      }

      .st6 {
        fill: url(#Blanco_Negro_22);
      }

      .st7 {
        fill: url(#Blanco_Negro_23);
      }
    </style>
    <linearGradient id="Blanco_Negro_2" data-name="Blanco, Negro 2" x1="260.4" y1="368.27" x2="430.22" y2="504.65" gradientTransform="translate(-80.59 -32.75) rotate(-14.88)" gradientUnits="userSpaceOnUse">
      <stop offset="0" stop-color="#fff"/>
      <stop offset="1" stop-color="#1e1e1c"/>
    </linearGradient>
    <linearGradient id="Blanco_Negro_21" data-name="Blanco, Negro 2" x1="1941.72" y1="1956.92" x2="1978.42" y2="1956.92" gradientTransform="translate(1081.29 2746.03) rotate(-149.88)" xlink:href="#Blanco_Negro_2"/>
    <linearGradient id="Blanco_Negro_22" data-name="Blanco, Negro 2" x1="100.24" y1="196.51" x2="259.29" y2="355.56" xlink:href="#Blanco_Negro_2"/>
    <linearGradient id="Blanco_Negro_23" data-name="Blanco, Negro 2" x1="96.28" y1="482.34" x2="150.14" y2="536.2" xlink:href="#Blanco_Negro_2"/>
  </defs>
  <g class="st4">
    <g id="Capa_1">
      <g>
        <path class="st3" d="M458.56,135.55h0c-.07-.13-.15-.26-.22-.38-.1-.17-.2-.35-.3-.52h0c-5.34-9.11-11.74-18.56-18.42-26.98-1.03-1.3-2.85-1.65-4.29-.82l-26.37,15.15c-1.8,1.03-2.25,3.45-.92,5.04,6.84,8.2,13.16,17.3,18.41,26.31,32.32,55.91,34.65,127.09-.09,186.96-34.02,58.63-95.09,91.79-158.26,92.85-1.87.03-3.41-1.48-3.4-3.36l.13-60.33.25-116.93c0-2.57-2.78-4.19-5.01-2.91l-101.39,58.25-20.04,11.51c-1.62.93-2.17,3.01-1.21,4.62,5.01,8.37,10.71,16.38,17.06,23.94.97,1.16,2.59,1.53,3.96.9h0c.09-.04.18-.09.27-.14l65.79-37.8c2.23-1.28,5.02.33,5.01,2.91l-.16,76.02-.08,39.86h0s-.07,34.41-.07,34.41c0,1.66,1.22,3.07,2.86,3.32,10.83,1.62,21.71,2.43,32.55,2.44,77.05.12,152.05-39.73,193.49-111.16,41.45-71.44,38.8-156.33.45-223.16Z"/>
        <path class="st2" d="M458.56,135.55h0c-.07-.13-.15-.26-.22-.38-.1-.17-.2-.35-.3-.52h0c-5.35-9.12-11.75-18.58-18.44-27.01-1.02-1.29-2.84-1.62-4.27-.8l-26.35,15.14c-1.8,1.04-2.27,3.46-.93,5.05,6.84,8.2,13.16,17.3,18.41,26.31,32.32,55.91,34.65,127.09-.09,186.96-34.02,58.64-95.11,91.8-158.29,92.85-1.86.03-3.38-1.5-3.37-3.36l.13-60.33.25-116.93c0-2.57-2.78-4.19-5.01-2.91l-101.39,58.25-20.04,11.51c-1.61.93-2.18,3-1.22,4.6,5.02,8.38,10.73,16.41,17.09,23.99.96,1.14,2.58,1.5,3.94.87h0c.09-.04.18-.09.27-.14l65.79-37.8c2.23-1.28,5.02.33,5.01,2.91l-.16,76.02-.08,39.86h0s-.07,34.41-.07,34.41c0,1.65,1.2,3.07,2.83,3.31,10.84,1.62,21.73,2.43,32.59,2.45,77.05.12,152.05-39.73,193.49-111.16,41.45-71.44,38.8-156.33.45-223.16Z"/>
        <g>
          <path class="st5" d="M371.6,144.16h0c-.09.04-.18.09-.27.14l-65.79,37.8c-2.23,1.28-5.02-.33-5.01-2.91l.16-76.02.08-39.86h0s.07-34.41.07-34.41c0-1.66-1.22-3.07-2.86-3.32-10.83-1.62-21.71-2.43-32.55-2.44-77.05-.12-152.05,39.73-193.49,111.16-41.53,71.57-38.79,156.65-.24,223.54l-.03.02c5.39,9.4,11.48,18.45,18.26,27.06,1.03,1.31,2.86,1.67,4.3.84l26.36-15.14c1.8-1.03,2.23-3.44.9-5.04-6.64-8.03-12.54-16.56-17.69-25.48l.03-.02c-32.54-55.97-34.96-127.35-.15-187.36,34.02-58.63,95.09-91.79,158.26-92.85,1.87-.03,3.41,1.48,3.4,3.36l-.13,60.33-.25,116.93c0,2.57,2.78,4.19,5.01,2.91l101.39-58.25,20.04-11.51c1.62-.93,2.17-3.01,1.21-4.62-5.01-8.37-10.71-16.38-17.06-23.94-.97-1.16-2.59-1.53-3.96-.9Z"/>
          <circle class="st5" cx="162.49" cy="423.88" r="18.35"/>
        </g>
        <circle class="st3" cx="367.96" cy="69.73" r="18.35"/>
        <circle class="st1" cx="367.96" cy="69.73" r="18.35"/>
        <g class="st0">
          <g>
            <path class="st6" d="M371.6,144.16h0c-.09.04-.18.09-.27.14l-65.79,37.8c-2.23,1.28-5.02-.33-5.01-2.91l.16-76.02.08-39.86h0s.07-34.41.07-34.41c0-1.66-1.22-3.07-2.86-3.32-10.83-1.62-21.71-2.43-32.55-2.44-77.05-.12-152.05,39.73-193.49,111.16-41.53,71.57-38.79,156.65-.24,223.54l-.03.02c5.39,9.4,11.48,18.45,18.26,27.06,1.03,1.31,2.86,1.67,4.3.84l26.36-15.14c1.8-1.03,2.23-3.44.9-5.04-6.64-8.03-12.54-16.56-17.69-25.48l.03-.02c-32.54-55.97-34.96-127.35-.15-187.36,34.02-58.63,95.09-91.79,158.26-92.85,1.87-.03,3.41,1.48,3.4,3.36l-.13,60.33-.25,116.93c0,2.57,2.78,4.19,5.01,2.91l101.39-58.25,20.04-11.51c1.62-.93,2.17-3.01,1.21-4.62-5.01-8.37-10.71-16.38-17.06-23.94-.97-1.16-2.59-1.53-3.96-.9Z"/>
            <circle class="st7" cx="162.49" cy="423.88" r="18.35"/>
          </g>
        </g>
      </g>
    </g>
  </g>
</svg>