<?xml version="1.0" encoding="UTF-8"?>
<svg xmlns="http://www.w3.org/2000/svg" viewBox="0 0 509 499">
  <g>
    <path fill="#884393" d="M458.56,135.55h0c-.07-.13-.15-.26-.22-.38-.1-.17-.2-.35-.3-.52h0c-5.34-9.11-11.74-18.56-18.42-26.98-1.03-1.3-2.85-1.65-4.29-.82l-26.37,15.15c-1.8,1.03-2.25,3.45-.92,5.04,6.84,8.2,13.16,17.3,18.41,26.31,32.32,55.91,34.65,127.09-.09,186.96-34.02,58.63-95.09,91.79-158.26,92.85-1.87.03-3.41-1.48-3.4-3.36l.13-60.33.25-116.93c0-2.57-2.78-4.19-5.01-2.91l-101.39,58.25-20.04,11.51c-1.62.93-2.17,3.01-1.21,4.62,5.01,8.37,10.71,16.38,17.06,23.94.97,1.16,2.59,1.53,3.96.9h0c.09-.04.18-.09.27-.14l65.79-37.8c2.23-1.28,5.02.33,5.01,2.91l-.16,76.02-.08,39.86h0s-.07,34.41-.07,34.41c0,1.66,1.22,3.07,2.86,3.32,10.83,1.62,21.71,2.43,32.55,2.44,77.05.12,152.05-39.73,193.49-111.16,41.45-71.44,38.8-156.33.45-223.16Z"/>
    <path fill="#54c2e9" d="M371.6,144.16h0c-.09.04-.18.09-.27.14l-65.79,37.8c-2.23,1.28-5.02-.33-5.01-2.91l.16-76.02.08-39.86h0s.07-34.41.07-34.41c0-1.66-1.22-3.07-2.86-3.32-10.83-1.62-21.71-2.43-32.55-2.44-77.05-.12-152.05,39.73-193.49,111.16-41.53,71.57-38.79,156.65-.24,223.54l-.03.02c5.39,9.4,11.48,18.45,18.26,27.06,1.03,1.31,2.86,1.67,4.3.84l26.36-15.14c1.8-1.03,2.23-3.44.9-5.04-6.64-8.03-12.54-16.56-17.69-25.48l.03-.02c-32.54-55.97-34.96-127.35-.15-187.36,34.02-58.63,95.09-91.79,158.26-92.85,1.87-.03,3.41,1.48,3.4,3.36l-.13,60.33-.25,116.93c0,2.57,2.78,4.19,5.01,2.91l101.39-58.25,20.04-11.51c1.62-.93,2.17-3.01,1.21-4.62-5.01-8.37-10.71-16.38-17.06-23.94-.97-1.16-2.59-1.53-3.96-.9Z"/>
    <circle fill="#54c2e9" cx="162.49" cy="423.88" r="18.35"/>
    <circle fill="#884393" cx="367.96" cy="69.73" r="18.35"/>
  </g>
</svg>
